<?xml version="1.0" encoding="iso-8859-1"?>
<!-- Generator: Adobe Illustrator 21.0.2, SVG Export Plug-In . SVG Version: 6.00 Build 0)  -->
<svg xmlns="http://www.w3.org/2000/svg" xmlns:xlink="http://www.w3.org/1999/xlink" version="1.1" id="Layer_1" x="0px" y="0px" viewBox="0 0 40 40" style="enable-background:new 0 0 40 40;" xml:space="preserve">
<g>
	<rect x="16.5" y="28.5" style="fill:#98CCFD;" width="7" height="6"/>
	<path style="fill:#4788C7;" d="M23,29v5h-6v-5H23 M24,28h-8v7h8V28L24,28z"/>
</g>
<g>
	<rect x="1.5" y="4.5" style="fill:#FFFFFF;" width="37" height="26"/>
	<g>
		<path style="fill:#4788C7;" d="M38,5v25H2V5H38 M39,4H1v27h38V4L39,4z"/>
	</g>
</g>
<g>
	<rect x="1.5" y="26.5" style="fill:#98CCFD;" width="37" height="4"/>
	<path style="fill:#4788C7;" d="M38,27v3H2v-3H38 M39,26H1v5h38V26L39,26z"/>
</g>
<g>
	<path style="fill:#98CCFD;" d="M9.5,36.5V36c0-1.379,1.122-2.5,2.5-2.5h16c1.378,0,2.5,1.121,2.5,2.5v0.5H9.5z"/>
	<path style="fill:#4788C7;" d="M28,34c1.103,0,2,0.897,2,2H10c0-1.103,0.897-2,2-2H28 M28,33H12c-1.657,0-3,1.343-3,3v1h22v-1   C31,34.343,29.657,33,28,33L28,33z"/>
</g>
<path style="fill:#FFFFFF;" d="M36.5,29h-2c-0.276,0-0.5-0.224-0.5-0.5v0c0-0.276,0.224-0.5,0.5-0.5h2c0.276,0,0.5,0.224,0.5,0.5v0  C37,28.776,36.776,29,36.5,29z"/>
<g>
	<path style="fill:#4788C7;" d="M20,19L20,19c-0.552,0-1-0.448-1-1V9c0-0.552,0.448-1,1-1h0c0.552,0,1,0.448,1,1v9   C21,18.552,20.552,19,20,19z"/>
</g>
<g>
	<path style="fill:#4788C7;" d="M20,23L20,23c-0.552,0-1-0.448-1-1v0c0-0.552,0.448-1,1-1h0c0.552,0,1,0.448,1,1v0   C21,22.552,20.552,23,20,23z"/>
</g>
</svg>
